<mxfile host="app.diagrams.net" modified="2023-06-26T09:32:51.200Z" agent="Mozilla/5.0 (Windows NT 10.0; Win64; x64) AppleWebKit/537.36 (KHTML, like Gecko) Chrome/114.0.0.0 Safari/537.36" etag="E464AQa3ktt94QS6Pphs" version="21.5.0" type="github">
  <diagram name="Page-1" id="Pj8JxLWc7A7s6rLNthNV">
    <mxGraphModel dx="1434" dy="756" grid="0" gridSize="10" guides="1" tooltips="1" connect="1" arrows="1" fold="1" page="1" pageScale="1" pageWidth="827" pageHeight="1169" math="0" shadow="0">
      <root>
        <mxCell id="0" />
        <mxCell id="1" parent="0" />
        <mxCell id="OXVCj5owbj6GMBL5KQRy-3" value="&lt;font style=&quot;font-size: 18px;&quot;&gt;原始&lt;/font&gt;" style="ellipse;whiteSpace=wrap;html=1;aspect=fixed;" vertex="1" parent="1">
          <mxGeometry x="527" y="347" width="67" height="67" as="geometry" />
        </mxCell>
        <mxCell id="OXVCj5owbj6GMBL5KQRy-4" value="&lt;font style=&quot;font-size: 18px;&quot;&gt;配置&lt;/font&gt;" style="ellipse;whiteSpace=wrap;html=1;aspect=fixed;" vertex="1" parent="1">
          <mxGeometry x="976" y="345" width="67" height="67" as="geometry" />
        </mxCell>
        <mxCell id="OXVCj5owbj6GMBL5KQRy-5" value="&lt;font style=&quot;font-size: 18px;&quot;&gt;搜索&lt;/font&gt;" style="ellipse;whiteSpace=wrap;html=1;aspect=fixed;" vertex="1" parent="1">
          <mxGeometry x="829" y="341" width="67" height="67" as="geometry" />
        </mxCell>
        <mxCell id="OXVCj5owbj6GMBL5KQRy-6" value="&lt;span style=&quot;color: rgb(0, 0, 0); font-family: Helvetica; font-size: 18px; font-style: normal; font-variant-ligatures: normal; font-variant-caps: normal; font-weight: 400; letter-spacing: normal; orphans: 2; text-align: center; text-indent: 0px; text-transform: none; widows: 2; word-spacing: 0px; -webkit-text-stroke-width: 0px; background-color: rgb(251, 251, 251); text-decoration-thickness: initial; text-decoration-style: initial; text-decoration-color: initial; float: none; display: inline !important;&quot;&gt;过滤&lt;/span&gt;" style="ellipse;whiteSpace=wrap;html=1;aspect=fixed;" vertex="1" parent="1">
          <mxGeometry x="355" y="343" width="67" height="67" as="geometry" />
        </mxCell>
        <mxCell id="OXVCj5owbj6GMBL5KQRy-7" value="&lt;font style=&quot;font-size: 18px;&quot;&gt;增删列&lt;/font&gt;" style="ellipse;whiteSpace=wrap;html=1;aspect=fixed;" vertex="1" parent="1">
          <mxGeometry x="678" y="347" width="67" height="67" as="geometry" />
        </mxCell>
        <mxCell id="OXVCj5owbj6GMBL5KQRy-8" value="&lt;font style=&quot;font-size: 18px;&quot;&gt;排序&lt;/font&gt;" style="ellipse;whiteSpace=wrap;html=1;aspect=fixed;" vertex="1" parent="1">
          <mxGeometry x="213" y="347" width="67" height="67" as="geometry" />
        </mxCell>
      </root>
    </mxGraphModel>
  </diagram>
</mxfile>
